{"asset":{"version":"2.0","generator":"pose-tool gen_gltf.py"},"scene":0,"scenes":[{"name":"Scene","nodes":[47]}],"nodes":[{"name":"UpperArmMeshL","translation":[0.135,0,0],"mesh":0,"material":0},{"name":"BallShoulderL","translation":[0,0,0],"mesh":12,"material":1},{"name":"ForearmMeshL","translation":[0.12,0,0],"mesh":1,"material":0},{"name":"BallElbowL","translation":[0,0,0],"mesh":13,"material":1},{"name":"HandMeshL","translation":[0.045,0,0],"mesh":2,"material":0},{"name":"BallWristL","translation":[0,0,0],"mesh":14,"material":1},{"name":"UpperArmMeshR","translation":[-0.135,0,0],"mesh":0,"material":0},{"name":"BallShoulderR","translation":[0,0,0],"mesh":12,"material":1},{"name":"ForearmMeshR","translation":[-0.12,0,0],"mesh":1,"material":0},{"name":"BallElbowR","translation":[0,0,0],"mesh":13,"material":1},{"name":"HandMeshR","translation":[-0.045,0,0],"mesh":2,"material":0},{"name":"BallWristR","translation":[0,0,0],"mesh":14,"material":1},{"name":"ThighMeshL","translation":[0,-0.21,0],"mesh":3,"material":0},{"name":"BallHipL","translation":[0,0,0],"mesh":15,"material":1},{"name":"CalfMeshL","translation":[0,-0.19,0],"mesh":4,"material":0},{"name":"BallKneeL","translation":[0,0,0],"mesh":16,"material":1},{"name":"FootMeshL","translation":[0,-0.06,0.045],"mesh":5,"material":0},{"name":"BallAnkleL","translation":[0,0,0],"mesh":17,"material":1},{"name":"ThighMeshR","translation":[0,-0.21,0],"mesh":3,"material":0},{"name":"BallHipR","translation":[0,0,0],"mesh":15,"material":1},{"name":"CalfMeshR","translation":[0,-0.19,0],"mesh":4,"material":0},{"name":"BallKneeR","translation":[0,0,0],"mesh":16,"material":1},{"name":"FootMeshR","translation":[0,-0.06,0.045],"mesh":5,"material":0},{"name":"BallAnkleR","translation":[0,0,0],"mesh":17,"material":1},{"name":"PelvisMesh","translation":[0,-0.03,0],"mesh":8,"material":0},{"name":"WaistMesh","translation":[0,0.05,0],"mesh":7,"material":0},{"name":"ChestMesh","translation":[0,0,0],"mesh":6,"material":0},{"name":"NeckMesh","translation":[0,0.02,0],"mesh":9,"material":0},{"name":"HeadMesh","translation":[0,0.11,0],"mesh":10,"material":0},{"name":"NoseMesh","translation":[0,0.1,0.092],"mesh":11,"material":1},{"name":"FootL","translation":[0,-0.4,0],"children":[16,17]},{"name":"LowerLegL","translation":[0,-0.42,0],"children":[14,15,30]},{"name":"UpperLegL","translation":[0.09,-0.02,0],"children":[12,13,31]},{"name":"FootR","translation":[0,-0.4,0],"children":[22,23]},{"name":"LowerLegR","translation":[0,-0.42,0],"children":[20,21,33]},{"name":"UpperLegR","translation":[-0.09,-0.02,0],"children":[18,19,34]},{"name":"HandL","translation":[0.24,0,0],"children":[4,5]},{"name":"ForearmL","translation":[0.27,0,0],"children":[2,3,36]},{"name":"UpperArmL","translation":[0.17,0.13,0],"children":[0,1,37]},{"name":"HandR","translation":[-0.24,0,0],"children":[10,11]},{"name":"ForearmR","translation":[-0.27,0,0],"children":[8,9,39]},{"name":"UpperArmR","translation":[-0.17,0.13,0],"children":[6,7,40]},{"name":"Head","translation":[0,0.06,0],"children":[28,29]},{"name":"Neck","translation":[0,0.17,0],"children":[27,42]},{"name":"Chest","translation":[0,0.15,0],"children":[26,43,38,41]},{"name":"Spine","translation":[0,0.1,0],"children":[25,44]},{"name":"Hips","translation":[0,0.94,0],"children":[24,45,32,35]},{"name":"Root","translation":[0,0,0],"children":[46]}],"meshes":[{"name":"uparm","primitives":[{"attributes":{"POSITION":0,"NORMAL":1},"indices":2,"material":0}]},{"name":"forearm","primitives":[{"attributes":{"POSITION":3,"NORMAL":4},"indices":5,"material":0}]},{"name":"hand","primitives":[{"attributes":{"POSITION":6,"NORMAL":7},"indices":8,"material":0}]},{"name":"thigh","primitives":[{"attributes":{"POSITION":9,"NORMAL":10},"indices":11,"material":0}]},{"name":"calf","primitives":[{"attributes":{"POSITION":12,"NORMAL":13},"indices":14,"material":0}]},{"name":"foot","primitives":[{"attributes":{"POSITION":15,"NORMAL":16},"indices":17,"material":0}]},{"name":"chest","primitives":[{"attributes":{"POSITION":18,"NORMAL":19},"indices":20,"material":0}]},{"name":"waist","primitives":[{"attributes":{"POSITION":21,"NORMAL":22},"indices":23,"material":0}]},{"name":"pelvis","primitives":[{"attributes":{"POSITION":24,"NORMAL":25},"indices":26,"material":0}]},{"name":"neck","primitives":[{"attributes":{"POSITION":27,"NORMAL":28},"indices":29,"material":0}]},{"name":"head","primitives":[{"attributes":{"POSITION":30,"NORMAL":31},"indices":32,"material":0}]},{"name":"nose","primitives":[{"attributes":{"POSITION":33,"NORMAL":34},"indices":35,"material":1}]},{"name":"ball_sh","primitives":[{"attributes":{"POSITION":36,"NORMAL":37},"indices":38,"material":1}]},{"name":"ball_el","primitives":[{"attributes":{"POSITION":39,"NORMAL":40},"indices":41,"material":1}]},{"name":"ball_wr","primitives":[{"attributes":{"POSITION":42,"NORMAL":43},"indices":44,"material":1}]},{"name":"ball_hip","primitives":[{"attributes":{"POSITION":45,"NORMAL":46},"indices":47,"material":1}]},{"name":"ball_kn","primitives":[{"attributes":{"POSITION":48,"NORMAL":49},"indices":50,"material":1}]},{"name":"ball_an","primitives":[{"attributes":{"POSITION":51,"NORMAL":52},"indices":53,"material":1}]}],"materials":[{"name":"Wood","pbrMetallicRoughness":{"baseColorFactor":[0.878,0.71,0.53,1.0],"roughnessFactor":0.62,"metallicFactor":0.0}},{"name":"WoodDark","pbrMetallicRoughness":{"baseColorFactor":[0.545,0.392,0.259,1.0],"roughnessFactor":0.5,"metallicFactor":0.0}}],"accessors":[{"bufferView":0,"componentType":5126,"count":224,"type":"VEC3","min":[-0.125,-0.045,-0.045],"max":[0.125,0.045,0.045]},{"bufferView":1,"componentType":5126,"count":224,"type":"VEC3"},{"bufferView":2,"componentType":5123,"count":1248,"type":"SCALAR"},{"bufferView":3,"componentType":5126,"count":224,"type":"VEC3","min":[-0.11299999999999999,-0.038,-0.038],"max":[0.11299999999999999,0.038,0.038]},{"bufferView":4,"componentType":5126,"count":224,"type":"VEC3"},{"bufferView":5,"componentType":5123,"count":1248,"type":"SCALAR"},{"bufferView":6,"componentType":5126,"count":24,"type":"VEC3","min":[-0.045,-0.035,-0.015],"max":[0.045,0.035,0.015]},{"bufferView":7,"componentType":5126,"count":24,"type":"VEC3"},{"bufferView":8,"componentType":5123,"count":36,"type":"SCALAR"},{"bufferView":9,"componentType":5126,"count":224,"type":"VEC3","min":[-0.07,-0.2,-0.07],"max":[0.07,0.2,0.07]},{"bufferView":10,"componentType":5126,"count":224,"type":"VEC3"},{"bufferView":11,"componentType":5123,"count":1248,"type":"SCALAR"},{"bufferView":12,"componentType":5126,"count":224,"type":"VEC3","min":[-0.055,-0.185,-0.055],"max":[0.055,0.185,0.055]},{"bufferView":13,"componentType":5126,"count":224,"type":"VEC3"},{"bufferView":14,"componentType":5123,"count":1248,"type":"SCALAR"},{"bufferView":15,"componentType":5126,"count":24,"type":"VEC3","min":[-0.0425,-0.0375,-0.105],"max":[0.0425,0.0375,0.105]},{"bufferView":16,"componentType":5126,"count":24,"type":"VEC3"},{"bufferView":17,"componentType":5123,"count":36,"type":"SCALAR"},{"bufferView":18,"componentType":5126,"count":224,"type":"VEC3","min":[-0.12,-0.19,-0.12],"max":[0.12,0.19,0.12]},{"bufferView":19,"componentType":5126,"count":224,"type":"VEC3"},{"bufferView":20,"componentType":5123,"count":1248,"type":"SCALAR"},{"bufferView":21,"componentType":5126,"count":272,"type":"VEC3","min":[-0.095,-0.095,-0.095],"max":[0.095,0.095,0.095]},{"bufferView":22,"componentType":5126,"count":272,"type":"VEC3"},{"bufferView":23,"componentType":5123,"count":1536,"type":"SCALAR"},{"bufferView":24,"componentType":5126,"count":272,"type":"VEC3","min":[-0.145,-0.105,-0.105],"max":[0.145,0.105,0.105]},{"bufferView":25,"componentType":5126,"count":272,"type":"VEC3"},{"bufferView":26,"componentType":5123,"count":1536,"type":"SCALAR"},{"bufferView":27,"componentType":5126,"count":224,"type":"VEC3","min":[-0.035,-0.065,-0.035],"max":[0.035,0.065,0.035]},{"bufferView":28,"componentType":5126,"count":224,"type":"VEC3"},{"bufferView":29,"componentType":5123,"count":1248,"type":"SCALAR"},{"bufferView":30,"componentType":5126,"count":272,"type":"VEC3","min":[-0.095,-0.12,-0.105],"max":[0.095,0.12,0.105]},{"bufferView":31,"componentType":5126,"count":272,"type":"VEC3"},{"bufferView":32,"componentType":5123,"count":1536,"type":"SCALAR"},{"bufferView":33,"componentType":5126,"count":110,"type":"VEC3","min":[-0.022,-0.022,-0.02092324335849338],"max":[0.022,0.022,0.02092324335849338]},{"bufferView":34,"componentType":5126,"count":110,"type":"VEC3"},{"bufferView":35,"componentType":5123,"count":600,"type":"SCALAR"},{"bufferView":36,"componentType":5126,"count":272,"type":"VEC3","min":[-0.052,-0.052,-0.052],"max":[0.052,0.052,0.052]},{"bufferView":37,"componentType":5126,"count":272,"type":"VEC3"},{"bufferView":38,"componentType":5123,"count":1536,"type":"SCALAR"},{"bufferView":39,"componentType":5126,"count":272,"type":"VEC3","min":[-0.046,-0.046,-0.046],"max":[0.046,0.046,0.046]},{"bufferView":40,"componentType":5126,"count":272,"type":"VEC3"},{"bufferView":41,"componentType":5123,"count":1536,"type":"SCALAR"},{"bufferView":42,"componentType":5126,"count":272,"type":"VEC3","min":[-0.032,-0.032,-0.032],"max":[0.032,0.032,0.032]},{"bufferView":43,"componentType":5126,"count":272,"type":"VEC3"},{"bufferView":44,"componentType":5123,"count":1536,"type":"SCALAR"},{"bufferView":45,"componentType":5126,"count":272,"type":"VEC3","min":[-0.075,-0.075,-0.075],"max":[0.075,0.075,0.075]},{"bufferView":46,"componentType":5126,"count":272,"type":"VEC3"},{"bufferView":47,"componentType":5123,"count":1536,"type":"SCALAR"},{"bufferView":48,"componentType":5126,"count":272,"type":"VEC3","min":[-0.06,-0.06,-0.06],"max":[0.06,0.06,0.06]},{"bufferView":49,"componentType":5126,"count":272,"type":"VEC3"},{"bufferView":50,"componentType":5123,"count":1536,"type":"SCALAR"},{"bufferView":51,"componentType":5126,"count":272,"type":"VEC3","min":[-0.046,-0.046,-0.046],"max":[0.046,0.046,0.046]},{"bufferView":52,"componentType":5126,"count":272,"type":"VEC3"},{"bufferView":53,"componentType":5123,"count":1536,"type":"SCALAR"}],"bufferViews":[{"buffer":0,"byteOffset":0,"byteLength":2688,"target":34962},{"buffer":0,"byteOffset":2688,"byteLength":2688,"target":34962},{"buffer":0,"byteOffset":5376,"byteLength":2496,"target":34963},{"buffer":0,"byteOffset":7872,"byteLength":2688,"target":34962},{"buffer":0,"byteOffset":10560,"byteLength":2688,"target":34962},{"buffer":0,"byteOffset":13248,"byteLength":2496,"target":34963},{"buffer":0,"byteOffset":15744,"byteLength":288,"target":34962},{"buffer":0,"byteOffset":16032,"byteLength":288,"target":34962},{"buffer":0,"byteOffset":16320,"byteLength":72,"target":34963},{"buffer":0,"byteOffset":16392,"byteLength":2688,"target":34962},{"buffer":0,"byteOffset":19080,"byteLength":2688,"target":34962},{"buffer":0,"byteOffset":21768,"byteLength":2496,"target":34963},{"buffer":0,"byteOffset":24264,"byteLength":2688,"target":34962},{"buffer":0,"byteOffset":26952,"byteLength":2688,"target":34962},{"buffer":0,"byteOffset":29640,"byteLength":2496,"target":34963},{"buffer":0,"byteOffset":32136,"byteLength":288,"target":34962},{"buffer":0,"byteOffset":32424,"byteLength":288,"target":34962},{"buffer":0,"byteOffset":32712,"byteLength":72,"target":34963},{"buffer":0,"byteOffset":32784,"byteLength":2688,"target":34962},{"buffer":0,"byteOffset":35472,"byteLength":2688,"target":34962},{"buffer":0,"byteOffset":38160,"byteLength":2496,"target":34963},{"buffer":0,"byteOffset":40656,"byteLength":3264,"target":34962},{"buffer":0,"byteOffset":43920,"byteLength":3264,"target":34962},{"buffer":0,"byteOffset":47184,"byteLength":3072,"target":34963},{"buffer":0,"byteOffset":50256,"byteLength":3264,"target":34962},{"buffer":0,"byteOffset":53520,"byteLength":3264,"target":34962},{"buffer":0,"byteOffset":56784,"byteLength":3072,"target":34963},{"buffer":0,"byteOffset":59856,"byteLength":2688,"target":34962},{"buffer":0,"byteOffset":62544,"byteLength":2688,"target":34962},{"buffer":0,"byteOffset":65232,"byteLength":2496,"target":34963},{"buffer":0,"byteOffset":67728,"byteLength":3264,"target":34962},{"buffer":0,"byteOffset":70992,"byteLength":3264,"target":34962},{"buffer":0,"byteOffset":74256,"byteLength":3072,"target":34963},{"buffer":0,"byteOffset":77328,"byteLength":1320,"target":34962},{"buffer":0,"byteOffset":78648,"byteLength":1320,"target":34962},{"buffer":0,"byteOffset":79968,"byteLength":1200,"target":34963},{"buffer":0,"byteOffset":81168,"byteLength":3264,"target":34962},{"buffer":0,"byteOffset":84432,"byteLength":3264,"target":34962},{"buffer":0,"byteOffset":87696,"byteLength":3072,"target":34963},{"buffer":0,"byteOffset":90768,"byteLength":3264,"target":34962},{"buffer":0,"byteOffset":94032,"byteLength":3264,"target":34962},{"buffer":0,"byteOffset":97296,"byteLength":3072,"target":34963},{"buffer":0,"byteOffset":100368,"byteLength":3264,"target":34962},{"buffer":0,"byteOffset":103632,"byteLength":3264,"target":34962},{"buffer":0,"byteOffset":106896,"byteLength":3072,"target":34963},{"buffer":0,"byteOffset":109968,"byteLength":3264,"target":34962},{"buffer":0,"byteOffset":113232,"byteLength":3264,"target":34962},{"buffer":0,"byteOffset":116496,"byteLength":3072,"target":34963},{"buffer":0,"byteOffset":119568,"byteLength":3264,"target":34962},{"buffer":0,"byteOffset":122832,"byteLength":3264,"target":34962},{"buffer":0,"byteOffset":126096,"byteLength":3072,"target":34963},{"buffer":0,"byteOffset":129168,"byteLength":3264,"target":34962},{"buffer":0,"byteOffset":132432,"byteLength":3264,"target":34962},{"buffer":0,"byteOffset":135696,"byteLength":3072,"target":34963}],"buffers":[{"byteLength":138768,"uri":"data:application/octet-stream;base64,"}]}